<svg xmlns="http://www.w3.org/2000/svg" width="21" height="22" viewBox="0 0 21 22">
    <defs>
        <clipPath id="y98dyi7fma">
            <path data-name="Rectangle 15077" style="fill:#fff" d="M0 0h21v22H0z"/>
        </clipPath>
    </defs>
    <g data-name="Group 44651">
        <g data-name="Group 44650" style="clip-path:url(#y98dyi7fma)">
            <path data-name="Path 102384" d="M15.789 15a1.292 1.292 0 1 0 1.292 1.292A1.292 1.292 0 0 0 15.789 15" transform="translate(-5.131 -5.309)" style="fill:#fff"/>
            <path data-name="Path 102385" d="M19.037 3.517a10.983 10.983 0 1 0-8.02 18.45 1.234 1.234 0 0 0 1.111-.67A1.3 1.3 0 0 0 11 19.383a7.931 7.931 0 0 1-3.654-.763 8.439 8.439 0 0 1 2.893-16 8.38 8.38 0 0 1 6.9 2.659 6.127 6.127 0 0 1 1.593 4.2v2.494A1.28 1.28 0 0 1 17.9 13.2a1.25 1.25 0 0 1-1.655-1.18V7.17a1.334 1.334 0 0 0-.974-1.317 1.292 1.292 0 0 0-1.408.563 5.585 5.585 0 1 0 .924 8.316 3.826 3.826 0 0 0 3.33 1.069 4.1 4.1 0 0 0 3.2-3.917V9.472a8.7 8.7 0 0 0-2.282-5.955m-7.562 10.358a3.011 3.011 0 0 1-3.707-3.707 2.959 2.959 0 0 1 2.077-2.076 3.01 3.01 0 0 1 3.706 3.708 2.957 2.957 0 0 1-2.077 2.077" style="fill:#fff"/>
        </g>
    </g>
</svg>
