<svg xmlns="http://www.w3.org/2000/svg" width="22.347" height="22" viewBox="0 0 22.347 22">
    <defs>
        <clipPath id="fr3a6nhita">
            <path data-name="Rectangle 15078" style="fill:#fff" d="M0 0h22.347v22H0z"/>
        </clipPath>
    </defs>
    <g data-name="Group 44653">
        <g data-name="Group 44652" style="clip-path:url(#fr3a6nhita)">
            <path data-name="Path 102386" d="M20.992 0h-2.708a1.354 1.354 0 0 0-1.354 1.354 1.354 1.354 0 1 1-2.709 0A1.354 1.354 0 0 0 12.866 0H9.48a1.354 1.354 0 0 0-1.354 1.354 1.354 1.354 0 1 1-2.709 0A1.354 1.354 0 0 0 4.063 0H1.354A1.354 1.354 0 0 0 0 1.354v15.575a1.354 1.354 0 0 0 1.354 1.354h19.638a1.354 1.354 0 0 0 1.354-1.354V1.354A1.354 1.354 0 0 0 20.992 0M5.85 6.155a1.959 1.959 0 1 1-1.959 1.959A1.959 1.959 0 0 1 5.85 6.155M9.142 13.8a.469.469 0 0 1-.45.485H3.009a.469.469 0 0 1-.451-.485v-.461a1.542 1.542 0 0 1 1.482-1.6h3.62a1.542 1.542 0 0 1 1.482 1.6zm9.142-.422h-6.095a.846.846 0 0 1 0-1.693h6.095a.846.846 0 1 1 0 1.693m0-3.386h-6.095a.846.846 0 1 1 0-1.693h6.095a.846.846 0 1 1 0 1.693" style="fill:#fff"/>
            <path data-name="Path 102387" d="M20.477 29.488H1.516a1.016 1.016 0 1 0 0 2.032h18.961a1.016 1.016 0 1 0 0-2.032" transform="translate(-.161 -9.52)" style="fill:#fff"/>
        </g>
    </g>
</svg>
