<svg data-name="Group 44619" xmlns="http://www.w3.org/2000/svg" width="22.767" height="22.774" viewBox="0 0 22.767 22.774">
    <defs>
        <clipPath id="miwkuwbt6a">
            <path data-name="Rectangle 15060" style="fill:#e77817" d="M0 0h22.767v22.774H0z"/>
        </clipPath>
    </defs>
    <g data-name="Group 44618" style="clip-path:url(#miwkuwbt6a)">
        <path data-name="Path 102382" d="M2.955 15.39H0v7.11l2.106-1.934a11.382 11.382 0 0 0 20.568-5.176H19.8a8.543 8.543 0 0 1-15.579 3.234l3.52-3.234z" transform="translate(0 -2.577)" style="fill-rule:evenodd;fill:#e77817"/>
        <path data-name="Path 102383" d="M11.393 0A11.388 11.388 0 0 0 .1 9.962h2.871a8.542 8.542 0 0 1 15.715-3.014l-3.025 3.014h7.123v-7.11l-2.04 2.036A11.367 11.367 0 0 0 11.393 0" transform="translate(-.016)" style="fill-rule:evenodd;fill:#e77817"/>
    </g>
</svg>
