<svg xmlns="http://www.w3.org/2000/svg" width="39" height="39" viewBox="0 0 39 39">
    <defs>
        <clipPath id="vxh897vsba">
            <path data-name="Rectangle 15092" style="fill:#e77817" d="M0 0h13.358v13.346H0z"/>
        </clipPath>
    </defs>
    <g data-name="Group 44678">
        <g data-name="Group 44677">
            <g data-name="Group 44676" style="clip-path:url(#vxh897vsba)" transform="translate(13 12.827)">
                <path data-name="Path 102398" d="M13.358 7.121c-.02.062-.037.124-.06.185a.918.918 0 0 1-.913.586H7.9v4.478a.915.915 0 0 1-.64.939.316.316 0 0 1-.088.021 7.6 7.6 0 0 1-.961 0 .859.859 0 0 1-.732-.8c-.007-.069-.007-.139-.008-.208V7.892H.986a.914.914 0 0 1-.94-.638.746.746 0 0 1-.04-.2c0-.248-.012-.5 0-.743a.9.9 0 0 1 .809-.835c.073-.007.148-.008.221-.008h4.429V5.29c0-1.4.009-2.791 0-4.186A.99.99 0 0 1 6.237 0h.887A.989.989 0 0 1 7.9 1.1c-.014 1.395 0 2.79 0 4.184v.175h4.438a1.679 1.679 0 0 1 .208.008.886.886 0 0 1 .768.615c.018.049.033.1.049.148z" transform="translate(0 -.001)" style="fill:#e77817"/>
            </g>
        </g>
        <g data-name="Ellipse 1193" style="stroke:#fff;fill:none">
            <circle cx="19.5" cy="19.5" r="19.5" style="stroke:none"/>
            <circle cx="19.5" cy="19.5" r="19" style="fill:none"/>
        </g>
    </g>
</svg>
