<svg xmlns="http://www.w3.org/2000/svg" width="26.515" height="26.515" viewBox="0 0 26.515 26.515">
    <path d="M24.306 2.486h-3.591V.829a.829.829 0 0 0-1.657 0v1.657h-4.972V.829a.829.829 0 0 0-1.657 0v1.657H7.457V.829a.829.829 0 0 0-1.657 0v1.657H2.21A2.209 2.209 0 0 0 0 4.695v19.61a2.21 2.21 0 0 0 2.21 2.21h22.1a2.209 2.209 0 0 0 2.209-2.21V4.695a2.208 2.208 0 0 0-2.209-2.209zm.552 21.819a.553.553 0 0 1-.552.553H2.21a.553.553 0 0 1-.553-.553V4.695a.553.553 0 0 1 .553-.552H5.8V5.8a.829.829 0 0 0 1.657 0V4.143h4.972V5.8a.829.829 0 1 0 1.657 0V4.143h4.972V5.8a.829.829 0 0 0 1.657 0V4.143h3.591a.553.553 0 0 1 .552.552zM5.8 9.943h3.315v2.486H5.8zm0 4.143h3.315v2.486H5.8zm0 4.143h3.315v2.486H5.8zm5.8 0h3.314v2.486H11.6zm0-4.143h3.314v2.486H11.6zm0-4.143h3.314v2.486H11.6zm5.8 8.286h3.314v2.486H17.4zm0-4.143h3.314v2.486H17.4zm0-4.143h3.314v2.486H17.4z" style="fill:#fff"/>
</svg>
