<svg xmlns="http://www.w3.org/2000/svg" width="30" height="30" viewBox="0 0 30 30">
    <defs>
        <clipPath id="nsht76plea">
            <path data-name="Rectangle 15084" style="fill:#60c0da" d="M0 0h20.068v17.012H0z"/>
        </clipPath>
    </defs>
    <path style="fill:none" d="M0 0h30v30H0z"/>
    <g data-name="Group 44669" style="clip-path:url(#nsht76plea)" transform="translate(5 4.988)">
        <path data-name="Path 102392" d="M0 189.711a5.967 5.967 0 0 1 .26-.854 2.771 2.771 0 0 1 2.436-1.7c.569-.041 1.144-.007 1.733-.007-.013.055-.028.1-.036.152a9.654 9.654 0 0 0-.186 1.311c-.021 1.885-.011 3.771-.006 5.657 0 .225.044.451.07.693h-.676c-.574 0-1.149-.015-1.722 0a1.761 1.761 0 0 1-1.851-1.5c0-.011-.014-.021-.021-.032v-3.721" transform="translate(0 -177.956)" style="fill:#60c0da"/>
        <path data-name="Path 102393" d="M113.936 165.721h-3.955c-.494 0-.7-.207-.7-.7v-5.7a2.894 2.894 0 0 1 2.9-2.93c1.175-.007 2.349-.011 3.524 0a2.865 2.865 0 0 1 2.832 2.273 3.183 3.183 0 0 1 .068.7q.008 2.839 0 5.678c0 .467-.213.68-.681.68h-3.994" transform="translate(-103.919 -148.714)" style="fill:#60c0da"/>
        <path data-name="Path 102394" d="M136.9 0a3.48 3.48 0 1 1-3.49 3.465A3.49 3.49 0 0 1 136.9 0" transform="translate(-126.869)" style="fill:#60c0da"/>
        <path data-name="Path 102395" d="M318.612 194.737c.065-2.231.047-4.466.009-6.7a5.61 5.61 0 0 0-.164-.921c-.01-.056-.026-.11-.046-.2a6.465 6.465 0 0 1 2.825.316 2.785 2.785 0 0 1 1.6 2.489c.037 1.1.021 2.193.007 3.289a1.664 1.664 0 0 1-1.512 1.709c-.915.058-1.837.013-2.717.013" transform="translate(-302.789 -177.749)" style="fill:#60c0da"/>
        <path data-name="Path 102396" d="M26.711 68.777a2.6 2.6 0 1 1 2.609 2.6 2.6 2.6 0 0 1-2.609-2.6" transform="translate(-25.4 -62.926)" style="fill:#60c0da"/>
        <path data-name="Path 102397" d="M281.234 68.766a2.6 2.6 0 1 1-2.61-2.592 2.613 2.613 0 0 1 2.61 2.592" transform="translate(-262.488 -62.927)" style="fill:#60c0da"/>
    </g>
</svg>
