<svg xmlns="http://www.w3.org/2000/svg" width="30" height="30" viewBox="0 0 30 30">
    <path style="fill:none" d="M0 0h30v30H0z"/>
    <path d="M694-329h2v-2h-2v2zm1-16a10 10 0 0 0-10 10 10 10 0 0 0 10 10 10 10 0 0 0 10-10 10 10 0 0 0-10-10zm0 18a8.011 8.011 0 0 1-8-8 8.011 8.011 0 0 1 8-8 8.011 8.011 0 0 1 8 8 8.011 8.011 0 0 1-8 8zm0-14a4 4 0 0 0-4 4h2a2.006 2.006 0 0 1 2-2 2.006 2.006 0 0 1 2 2c0 2-3 1.75-3 5h2c0-2.25 3-2.5 3-5a4 4 0 0 0-4-4z" transform="translate(-680 350)" style="fill:#60c0da;fill-rule:evenodd"/>
</svg>
