<svg xmlns="http://www.w3.org/2000/svg" width="27" height="26" viewBox="0 0 27 26">
    <path style="fill:none;opacity:.3" d="M0 0h27v26H0z"/>
    <path d="M334.111-47.667a1.557 1.557 0 0 0 .356-.036 1.8 1.8 0 0 0 1.28-1.049 1.784 1.784 0 0 0 .133-.693h-3.556a1.791 1.791 0 0 0 1.787 1.778zm5.333-9.778c0-2.729-1.458-5.013-4-5.618v-.6A1.332 1.332 0 0 0 334.111-65a1.332 1.332 0 0 0-1.333 1.333v.6c-2.551.6-4 2.88-4 5.618V-53L327-51.222v.889h14.222v-.889L339.444-53v-4.444z" transform="translate(-320.333 69.111)" style="fill:#d8d8d8;fill-rule:evenodd"/>
</svg>
