<svg xmlns="http://www.w3.org/2000/svg" width="26" height="26" viewBox="0 0 26 26">
    <path style="fill:none" d="M0 0h26v26H0z"/>
    <path d="M57.111-294.222h-.7l-.249-.24a5.752 5.752 0 0 0 1.4-3.76A5.778 5.778 0 0 0 51.778-304 5.778 5.778 0 0 0 46-298.222a5.778 5.778 0 0 0 5.778 5.778 5.752 5.752 0 0 0 3.76-1.4l.24.249v.7l4.444 4.436 1.324-1.324-4.436-4.444zm-5.333 0a4 4 0 0 1-4-4 4 4 0 0 1 4-4 4 4 0 0 1 4 4 4 4 0 0 1-4 4z" transform="translate(-39.667 309.302)" style="fill:#d8d8d8;fill-rule:evenodd"/>
</svg>
