<svg xmlns="http://www.w3.org/2000/svg" width="30" height="30" viewBox="0 0 30 30">
    <defs>
        <clipPath id="3esz9ppoda">
            <path data-name="Rectangle 15098" style="fill:#d9d9d9" d="M0 0h18.336v20H0z"/>
        </clipPath>
    </defs>
    <path style="fill:none" d="M0 0h30v30H0z"/>
    <g data-name="Group 44687">
        <g data-name="Group 44686" style="clip-path:url(#3esz9ppoda)" transform="translate(5.832 5)">
            <path data-name="Path 102399" d="M9.786 56.608h-1.25a1.087 1.087 0 0 0-.149-.033 8.857 8.857 0 0 1-3.75-1.163 9.034 9.034 0 0 1-4.49-9.529 8.9 8.9 0 0 1 5.674-6.965c.266-.112.545-.192.84-.295v.27c0 1.751-.006 3.5 0 5.251a2.5 2.5 0 0 0 5-.018c.007-1.75 0-3.5 0-5.251v-.238c.059.014.09.02.12.029A9.124 9.124 0 0 1 18.1 49.384a8.926 8.926 0 0 1-7.1 7.033c-.4.095-.806.129-1.21.191" transform="translate(0 -36.608)" style="fill:#d9d9d9"/>
            <path data-name="Path 102400" d="M159.452 4.167V.929a.846.846 0 0 1 .608-.893.826.826 0 0 1 1.057.664 1.9 1.9 0 0 1 .021.272v6.4a.9.9 0 0 1-.381.826.83.83 0 0 1-1.288-.583 2.277 2.277 0 0 1-.018-.311V4.163" transform="translate(-151.134)" style="fill:#d9d9d9"/>
        </g>
    </g>
</svg>
