<svg xmlns="http://www.w3.org/2000/svg" width="30" height="30" viewBox="0 0 30 30">
    <path style="fill:none" d="M0 0h30v30H0z"/>
    <g data-name="Group 44668">
        <g data-name="IL Take Care App Final Logo-01" transform="translate(5.008 4.985)">
            <circle data-name="Ellipse 119" cx="9.363" cy="9.363" r="9.363" transform="translate(.623 .964)" style="fill:#60c0da"/>
            <circle data-name="Ellipse 120" cx="8.352" cy="8.352" r="8.352" transform="translate(1.635 1.975)" style="fill:#001529"/>
            <path data-name="Path 2399" d="m58.68 50.122 1.589-5.572h1.586l-1.6 5.572z" transform="translate(-52.247 -39.708)" style="fill:#60c0da"/>
            <path data-name="Path 2400" d="m78.31 50.122 1.6-5.572h1.58l-1.29 4.51h2.458l-.3 1.061z" transform="translate(-69.142 -39.708)" style="fill:#60c0da"/>
            <g data-name="Group 16097">
                <path data-name="Path 2401" d="m30.639 93.1.538-1.868h-.7l.13-.449H32.6l-.128.449h-.637L31.3 93.1z" transform="translate(-27.974 -79.499)" style="fill:#60c0da"/>
                <path data-name="Path 2402" d="m40.585 97.165.046-.221a.772.772 0 0 1-.26.2.787.787 0 0 1-.326.064.494.494 0 0 1-.344-.113.408.408 0 0 1-.124-.313.528.528 0 0 1 .248-.467 1.288 1.288 0 0 1 .709-.164c.059 0 .139 0 .265.007h.008q.024-.079.033-.13a.5.5 0 0 0 .01-.077.139.139 0 0 0-.05-.113.2.2 0 0 0-.139-.042.224.224 0 0 0-.156.056.308.308 0 0 0-.079.17h-.543a.525.525 0 0 1 .254-.379 1.1 1.1 0 0 1 .579-.131.911.911 0 0 1 .506.116.391.391 0 0 1 .17.345.636.636 0 0 1-.01.107 2.068 2.068 0 0 1-.035.157l-.152.557a1.057 1.057 0 0 0-.033.162c-.008.063-.017.131-.021.2zm.155-.754h-.065a.836.836 0 0 0-.379.068.22.22 0 0 0-.128.206.177.177 0 0 0 .053.139.2.2 0 0 0 .139.052.279.279 0 0 0 .227-.111.862.862 0 0 0 .153-.354z" transform="translate(-35.803 -83.567)" style="fill:#60c0da"/>
                <path data-name="Path 2403" d="m52.74 93.071.66-2.321h.611l-.387 1.355.632-.652h.684l-.735.716.354.9h-.624l-.336-.893-.251.889z" transform="translate(-47.133 -79.473)" style="fill:#60c0da"/>
                <path data-name="Path 2404" d="M67.078 96.545a.808.808 0 0 1-.014.095.674.674 0 0 0 0 .075.248.248 0 0 0 .057.177.212.212 0 0 0 .163.06.249.249 0 0 0 .174-.063.337.337 0 0 0 .1-.182h.564a.7.7 0 0 1-.293.418 1.017 1.017 0 0 1-.557.139.836.836 0 0 1-.557-.173.611.611 0 0 1-.217-.478 1.04 1.04 0 0 1 .279-.754.963.963 0 0 1 .727-.279.77.77 0 0 1 .532.17.623.623 0 0 1 .188.481.886.886 0 0 1-.013.139c-.01.052-.022.111-.04.178zm.074-.309h.527a.2.2 0 0 1 .008-.072.52.52 0 0 0 0-.057.235.235 0 0 0-.054-.166.2.2 0 0 0-.152-.06.256.256 0 0 0-.194.089.734.734 0 0 0-.135.266z" transform="translate(-58.971 -83.63)" style="fill:#60c0da"/>
            </g>
            <g data-name="Group 16096">
                <path data-name="Path 2405" d="M88.931 92.039a.9.9 0 0 1-.351.578 1.2 1.2 0 0 1-.728.2 1.046 1.046 0 0 1-.74-.235.921.921 0 0 1-.254-.7 1.6 1.6 0 0 1 .132-.638 1.411 1.411 0 0 1 .364-.506 1.245 1.245 0 0 1 .408-.249 1.483 1.483 0 0 1 .49-.079 1.038 1.038 0 0 1 .642.174.572.572 0 0 1 .231.483v.157h-.631a.028.028 0 0 1 0-.01v-.071a.294.294 0 0 0-.078-.219.29.29 0 0 0-.215-.078.465.465 0 0 0-.262.077.722.722 0 0 0-.212.233 1.325 1.325 0 0 0-.15.352 1.4 1.4 0 0 0-.056.386.527.527 0 0 0 .1.343.35.35 0 0 0 .279.121.365.365 0 0 0 .245-.085.471.471 0 0 0 .139-.247z" transform="translate(-77.381 -79.186)" style="fill:#60c0da"/>
                <path data-name="Path 2406" d="m103.085 97.164.046-.221a.758.758 0 0 1-.26.2.787.787 0 0 1-.326.064.489.489 0 0 1-.343-.113.4.4 0 0 1-.125-.313.531.531 0 0 1 .248-.467 1.293 1.293 0 0 1 .716-.164c.059 0 .148 0 .265.007h.01l.032-.13a.368.368 0 0 0 .01-.077.139.139 0 0 0-.049-.113.2.2 0 0 0-.139-.042.219.219 0 0 0-.155.056.308.308 0 0 0-.079.17h-.549a.52.52 0 0 1 .252-.379 1.1 1.1 0 0 1 .579-.131.9.9 0 0 1 .506.116.391.391 0 0 1 .171.345.651.651 0 0 1-.011.107.8.8 0 0 1-.035.157l-.15.557a1.24 1.24 0 0 0-.035.162q-.013.095-.021.2zm.155-.754h-.06a.836.836 0 0 0-.38.068.221.221 0 0 0-.128.206.177.177 0 0 0 .053.139.2.2 0 0 0 .139.052.279.279 0 0 0 .227-.111.862.862 0 0 0 .149-.354z" transform="translate(-90.481 -83.567)" style="fill:#60c0da"/>
                <path data-name="Path 2407" d="m115.18 97.21.351-1.223c.025-.1.046-.173.06-.23l.038-.164h.585l-.084.306a1.205 1.205 0 0 1 .256-.258.405.405 0 0 1 .233-.081.506.506 0 0 1 .077 0 .6.6 0 0 1 .111.024l-.152.5a1.455 1.455 0 0 0-.128-.026.859.859 0 0 0-.118-.015.311.311 0 0 0-.241.095 1.063 1.063 0 0 0-.174.4l-.194.673z" transform="translate(-101.76 -83.613)" style="fill:#60c0da"/>
                <path data-name="Path 2408" d="M125.987 96.476a.808.808 0 0 1-.014.095.673.673 0 0 0 0 .075.248.248 0 0 0 .056.175.212.212 0 0 0 .163.06.249.249 0 0 0 .174-.063.337.337 0 0 0 .1-.182h.556a.7.7 0 0 1-.294.418 1.014 1.014 0 0 1-.564.139.836.836 0 0 1-.557-.173.611.611 0 0 1-.2-.488 1.04 1.04 0 0 1 .279-.754.963.963 0 0 1 .727-.279.768.768 0 0 1 .532.17.617.617 0 0 1 .188.481.888.888 0 0 1-.013.139 1.809 1.809 0 0 1-.04.178zm.074-.309h.529a.176.176 0 0 1 .01-.072.112.112 0 0 0 0-.057.235.235 0 0 0-.054-.166.2.2 0 0 0-.152-.06.251.251 0 0 0-.192.089.715.715 0 0 0-.141.265z" transform="translate(-110.559 -83.561)" style="fill:#60c0da"/>
            </g>
            <path data-name="Path 2409" d="M22.174 91.374a9.524 9.524 0 0 1-1.918-.193A8.969 8.969 0 0 1 14 86.389l-.051-.1.06-.1a.752.752 0 0 1 .659-.332 1.2 1.2 0 0 1 .57.156h.128a1.46 1.46 0 0 1 .941.366 2.16 2.16 0 0 1 1.459.945 6.235 6.235 0 0 0 2.516 1.438 5.994 5.994 0 0 0-.794-.569c-1.251-.82-1.122-1.621-1.052-1.848a.612.612 0 0 1 .51-.487.311.311 0 0 1 .245.113 2.446 2.446 0 0 0 1.006.652 2.683 2.683 0 0 1 .492.243 8.046 8.046 0 0 0 4.541 1.5 6.941 6.941 0 0 0 4.952-2.066 7.261 7.261 0 0 0 2.085-5.353l.417-.041a7.759 7.759 0 0 1-1.9 6.486 11.587 11.587 0 0 1-8.61 3.982z" transform="translate(-13.72 -70.84)" style="fill-rule:evenodd;fill:#60c0da"/>
            <path data-name="Path 2410" d="M31.029 80.718c1.016 5.543-4.764 10.232-10.3 10.232a9.243 9.243 0 0 1-1.874-.189 8.794 8.794 0 0 1-6.113-4.682.559.559 0 0 1 .481-.232 1.012 1.012 0 0 1 .522.161 1.59 1.59 0 0 1 .175-.01 1.312 1.312 0 0 1 .868.366h.032a1.914 1.914 0 0 1 1.335.868 6.049 6.049 0 0 0 2.837 1.538c.1 0 .156-.034.139-.112-.039-.163-.017-.232-.973-.854-1.509-.981-.945-1.959-.657-1.959a.106.106 0 0 1 .083.038c.485.584 1.178.683 1.539.934a8.2 8.2 0 0 0 4.658 1.532 7.31 7.31 0 0 0 7.25-7.625m.417-.074-.834.082a7.076 7.076 0 0 1-2.033 5.205 6.723 6.723 0 0 1-4.8 2 7.826 7.826 0 0 1-4.42-1.459 2.879 2.879 0 0 0-.529-.264 2.217 2.217 0 0 1-.925-.593.527.527 0 0 0-.407-.189.808.808 0 0 0-.71.633 1.391 1.391 0 0 0 .1 1.009 2.126 2.126 0 0 0 .367.521 3.241 3.241 0 0 1-.778-.621 2.44 2.44 0 0 0-1.545-1.017 1.606 1.606 0 0 0-1.017-.37h-.082a1.384 1.384 0 0 0-.615-.153.963.963 0 0 0-.834.431l-.117.191.1.2a9.171 9.171 0 0 0 6.391 4.9 9.638 9.638 0 0 0 1.963.2 11.8 11.8 0 0 0 8.768-4.056 7.962 7.962 0 0 0 1.945-6.654z" transform="translate(-12.27 -70.616)" style="fill:#60c0da"/>
            <path data-name="Path 2411" d="M18.968 21.488A7.759 7.759 0 0 1 20.872 15a11.576 11.576 0 0 1 8.618-3.98 9.521 9.521 0 0 1 1.917.193 8.969 8.969 0 0 1 6.254 4.792l.05.1-.058.1a.754.754 0 0 1-.659.332 1.208 1.208 0 0 1-.571-.156H36.3a1.46 1.46 0 0 1-.941-.366 2.16 2.16 0 0 1-1.459-.945 6.235 6.235 0 0 0-2.516-1.438 5.994 5.994 0 0 0 .794.569c1.251.82 1.122 1.621 1.052 1.848a.612.612 0 0 1-.51.487.311.311 0 0 1-.245-.113 2.428 2.428 0 0 0-1.006-.651 2.775 2.775 0 0 1-.5-.239 8.007 8.007 0 0 0-4.535-1.5 6.941 6.941 0 0 0-4.952 2.063 7.259 7.259 0 0 0-2.085 5.353z" transform="translate(-17.949 -10.815)" style="fill-rule:evenodd;fill:#60c0da"/>
            <path data-name="Path 2412" d="M28.21 9.93a9.243 9.243 0 0 1 1.874.189A8.792 8.792 0 0 1 36.2 14.8a.559.559 0 0 1-.481.232 1.012 1.012 0 0 1-.522-.161 1.589 1.589 0 0 1-.175.01 1.312 1.312 0 0 1-.868-.366h-.032a1.914 1.914 0 0 1-1.335-.868 6.046 6.046 0 0 0-2.838-1.538c-.1 0-.154.034-.139.112.039.163.017.232.973.854 1.509.981.945 1.959.657 1.959a.106.106 0 0 1-.087-.034c-.485-.584-1.18-.683-1.539-.934a8.2 8.2 0 0 0-4.658-1.531 7.31 7.31 0 0 0-7.25 7.625C16.89 14.613 22.675 9.931 28.21 9.93m0-.41a11.8 11.8 0 0 0-8.767 4.056A7.962 7.962 0 0 0 17.5 20.23l.834-.082a7.081 7.081 0 0 1 2.023-5.207 6.723 6.723 0 0 1 4.8-2 7.827 7.827 0 0 1 4.417 1.459 2.91 2.91 0 0 0 .528.264 2.213 2.213 0 0 1 .927.593.527.527 0 0 0 .407.189.808.808 0 0 0 .71-.633 1.391 1.391 0 0 0-.1-1.009 2.127 2.127 0 0 0-.367-.521 3.269 3.269 0 0 1 .778.621A2.44 2.44 0 0 0 34 14.921a1.606 1.606 0 0 0 1.017.37h.083a1.384 1.384 0 0 0 .615.153.963.963 0 0 0 .834-.431l.117-.191-.1-.2a9.171 9.171 0 0 0-6.391-4.9 9.635 9.635 0 0 0-1.959-.2z" transform="translate(-16.677 -9.52)" style="fill:#60c0da"/>
        </g>
    </g>
</svg>
