<svg xmlns="http://www.w3.org/2000/svg" width="30" height="30" viewBox="0 0 30 30">
    <defs>
        <clipPath id="ld5ea5b5ia">
            <path data-name="Rectangle 15079" style="fill:#d9d9d9" d="M0 0h16.835v23.552H0z"/>
        </clipPath>
    </defs>
    <g data-name="Group 44667">
        <path style="fill:none" d="M0 0h30v30H0z"/>
        <g data-name="Group 44666">
            <g data-name="Group 44665" transform="translate(6.582 2.219)" style="clip-path:url(#ld5ea5b5ia)">
                <path data-name="Path 102388" d="M16.212 8.772H.624A.623.623 0 0 0 0 9.4v16.831a.624.624 0 0 0 .624.624h15.588a.624.624 0 0 0 .624-.624V9.4a.623.623 0 0 0-.624-.624M3.274 11.789h3.9a.779.779 0 1 1 0 1.559h-3.9a.779.779 0 0 1 0-1.559m0 3.686h3.9a.779.779 0 1 1 0 1.559h-3.9a.779.779 0 1 1 0-1.559m9.509 9.041H3.274a.779.779 0 0 1 0-1.559h9.509a.779.779 0 0 1 0 1.559m0-3.741H3.274a.779.779 0 0 1 0-1.559h9.509a.779.779 0 0 1 0 1.559M13.718 16a.624.624 0 0 1-.624.624H10.6A.624.624 0 0 1 9.977 16v-3.431a.624.624 0 0 1 .624-.624h2.494a.624.624 0 0 1 .624.624z" transform="translate(0 -3.303)" style="fill:#d9d9d9"/>
                <path data-name="Path 102389" d="M14.215.013.4 2.881A.514.514 0 0 0 .514 3.9h13.827a.623.623 0 0 0 .624-.624V.623a.623.623 0 0 0-.75-.61" style="fill:#d9d9d9"/>
            </g>
        </g>
    </g>
</svg>
