<svg xmlns="http://www.w3.org/2000/svg" width="26" height="26" viewBox="0 0 26 26">
    <defs>
        <clipPath id="ff8dgq9fna">
            <path data-name="Rectangle 15099" style="fill:#d8d8d8" d="M0 0h26v26H0z"/>
        </clipPath>
    </defs>
    <g data-name="Group 44691">
        <g data-name="Group 44690">
            <g data-name="Group 44689" style="clip-path:url(#ff8dgq9fna)">
                <path data-name="Path 102401" d="M26 12.995A13 13 0 1 1 12.856 0 12.992 12.992 0 0 1 26 12.995m-3.675 6.312A11.26 11.26 0 1 0 3.7 19.29a12.86 12.86 0 0 1 9.3-3.9 12.862 12.862 0 0 1 9.316 3.912" transform="translate(.003 .001)" style="fill:#d8d8d8"/>
                <path data-name="Path 102402" d="M118.292 53.048a5.2 5.2 0 1 1-5.163-5.21 5.206 5.206 0 0 1 5.163 5.21" transform="translate(-100.085 -44.377)" style="fill:#d8d8d8"/>
            </g>
        </g>
    </g>
</svg>
